{"title":"Sherlock S03E03 - His Last Vow 480p WEB-DL [CLog]","uid":9472614,"size":472816655,"categoryP":"video","categoryS":"tv_shows","magnet":"?xt=urn:btih:ba466948a26dfd05220ad8d1984a151576f07425&amp;dn=Sherlock+S03E03+-+His+Last+Vow+480p+WEB-DL+%5BCLog%5D+&amp;tr=udp%3A%2F%2Ftracker.openbittorrent.com%3A80&amp;tr=udp%3A%2F%2Fopen.demonii.com%3A1337&amp;tr=udp%3A%2F%2Ftracker.coppersurfer.tk%3A6969&amp;tr=udp%3A%2F%2Fexodus.desync.com%3A6969","seeders":1,"leechers":0,"uploader":"Cyber-Logic","files":2,"time":1389572860,"description":"----------------------------------------------------------------------------\n\nThe epic Series 3 finale is here! \n\n----------------------------------------------------------------------------\n\nSherlock S03E03 - His Last Vow | 480p WEB-DL | 450 MB | With Subtitles\n\n\n=== Encoded by Cyber-Logic ===\n\n\n----------------------------------------------------------------------------\n\nScreenshots:\n   &lt;a href=&quot;\nhttp://i.imgur.com/ZLFPQDo.png&quot; rel=&quot;nofollow&quot; target=&quot;_NEW&quot;&gt;\nhttp://i.imgur.com/ZLFPQDo.png&lt;/a&gt; &lt;a href=&quot;\nhttp://i.imgur.com/RGK8pus.png&quot; rel=&quot;nofollow&quot; target=&quot;_NEW&quot;&gt;\nhttp://i.imgur.com/RGK8pus.png&lt;/a&gt; &lt;a href=&quot;\nhttp://i.imgur.com/tVqqvbU.png&quot; rel=&quot;nofollow&quot; target=&quot;_NEW&quot;&gt;\nhttp://i.imgur.com/tVqqvbU.png&lt;/a&gt; &lt;a href=&quot;\nhttp://i.imgur.com/ceQn0QN.png&quot; rel=&quot;nofollow&quot; target=&quot;_NEW&quot;&gt;\nhttp://i.imgur.com/ceQn0QN.png&lt;/a&gt; &lt;a href=&quot;\nhttp://i.imgur.com/u2fkI0K.png&quot; rel=&quot;nofollow&quot; target=&quot;_NEW&quot;&gt;\nhttp://i.imgur.com/u2fkI0K.png&lt;/a&gt;\n\n----------------------------------------------------------------------------\n\n\nEncoding details:\n\n\n\nVideo\nID                                       : 2\nFormat                                   : AVC\nFormat/Info                              : Advanced Video Codec\nFormat profile                           : &lt;a class=&quot;__cf_email__&quot; href=&quot;/cdn-cgi/l/email-protection&quot; data-cfemail=&quot;84ccede3ecc4c8b0aab5&quot;&gt;[email&amp;#160;protected]&lt;/a&gt;&lt;script cf-hash='f9e31' type=&quot;text/javascript&quot;&gt;\n/* &lt;![CDATA[ */!function(){try{var t=&quot;currentScript&quot;in document?document.currentScript:function(){for(var t=document.getElementsByTagName(&quot;script&quot;),e=t.length;e--;)if(t[e].getAttribute(&quot;cf-hash&quot;))return t[e]}();if(t&amp;&amp;t.previousSibling){var e,r,n,i,c=t.previousSibling,a=c.getAttribute(&quot;data-cfemail&quot;);if(a){for(e=&quot;&quot;,r=parseInt(a.substr(0,2),16),n=2;a.length-n;n+=2)i=parseInt(a.substr(n,2),16)^r,e+=String.fromCharCode(i);e=document.createTextNode(e),c.parentNode.replaceChild(e,c)}}}catch(u){}}();/* ]]&gt; */&lt;/script&gt;\nFormat settings, CABAC                   : Yes\nFormat settings, ReFrames                : 5 frames\nCodec ID                                 : avc1\nCodec ID/Info                            : Advanced Video Coding\nDuration                                 : 1h 29mn\nBit rate                                 : 640 Kbps\nMaximum bit rate                         : 10.8 Mbps\nWidth                                    : 856 pixels\nHeight                                   : 480 pixels\nDisplay aspect ratio                     : 16:9\nOriginal display aspect ratio            : 16:9\nFrame rate mode                          : Constant\nFrame rate                               : 25.000 fps\nColor space                              : YUV\nChroma subsampling                       : 4:2:0\nBit depth                                : 8 bits\nScan type                                : Progressive\nBits/(Pixel*Frame)                       : 0.062\nStream size                              : 408 MiB (91%)\nWriting library                          : x264 core 140 r2345\nLanguage                                 : English\n\nAudio\nID                                       : 1\nFormat                                   : AAC\nFormat/Info                              : Advanced Audio Codec\nFormat profile                           : HE-AACv2 / HE-AAC / LC\nCodec ID                                 : 40\nDuration                                 : 1h 29mn\nBit rate mode                            : Variable\nChannel(s)                               : 2 channels\nChannel positions                        : Front: L R / Front: C / Front: C\nSampling rate                            : 48.0 KHz / 48.0 KHz / 24.0 KHz\nCompression mode                         : Lossy\nStream size                              : 40.8 MiB (9%)\n\n----------------------------------------------------------------------------\n\nSource: 1080p WEB-DL | Sherlock.S03E03.His.Last.Vow.1080p.WEB-DL.DD5.1\n\n----------------------------------------------------------------------------","torrent":{"xt":"urn:btih:ba466948a26dfd05220ad8d1984a151576f07425","amp;dn":"Sherlock+S03E03+-+His+Last+Vow+480p+WEB-DL+%5BCLog%5D+","amp;tr":["udp%3A%2F%2Ftracker.openbittorrent.com%3A80","udp%3A%2F%2Fopen.demonii.com%3A1337","udp%3A%2F%2Ftracker.coppersurfer.tk%3A6969","udp%3A%2F%2Fexodus.desync.com%3A6969"],"infoHash":"ba466948a26dfd05220ad8d1984a151576f07425","infoHashBuffer":{"type":"Buffer","data":[186,70,105,72,162,109,253,5,34,10,216,209,152,74,21,21,118,240,116,37]},"announce":[],"urlList":[]}}